<?xml version="1.0" encoding="utf-8"?>
<!-- Generator: Adobe Illustrator 27.7.0, SVG Export Plug-In . SVG Version: 6.00 Build 0)  -->
<svg version="1.1" id="Layer_1" xmlns="http://www.w3.org/2000/svg" xmlns:xlink="http://www.w3.org/1999/xlink" x="0px" y="0px"
	 viewBox="0 0 1000 1200" style="enable-background:new 0 0 1000 1200;" xml:space="preserve">
<style type="text/css">
	.st0{fill:#FFF200;stroke:#20409A;stroke-width:15;stroke-miterlimit:10;}
	.st1{fill:#FFF200;stroke:#20409A;stroke-width:10;stroke-miterlimit:10;}
	.st2{fill:#FFF200;stroke:#20409A;stroke-width:7;stroke-miterlimit:10;}
	.st3{fill:#EC008C;stroke:#20409A;stroke-width:15;stroke-miterlimit:10;}
	.st4{fill:#FFDD0E;stroke:#20409A;stroke-width:15;stroke-miterlimit:10;}
	.st5{fill:none;stroke:#20409A;stroke-width:15;stroke-miterlimit:10;}
	.st6{fill:#20409A;}
</style>
<g>
	<path class="st0" d="M772.4,782.5c-8.2-106.1-103.9-170.4-156-246c-49-71-43-123-43-123H427.9c0,0,6,52-43,123
		c-52.1,75.6-147.8,139.9-156,246c-5,65,11,165,11,165h521.5C761.4,947.5,777.4,847.5,772.4,782.5z"/>
	<g>
		<path class="st1" d="M272.9,880.9c0,0,1.8-9.5,12-16.3c11.5-7.6,39,0.9,39,0.9s0,26-4,34c-5.4,10.8-16,16-16,16L272.9,880.9z"/>
		<path class="st1" d="M307.3,923.4c0,0,17.6-6.6,28.3-6c10.8,0.6,23.8,7.6,26.8,9.6s22.5,20.5,22.5,20.5h-70L307.3,923.4z"/>
		<path class="st1" d="M227.9,819.5c0,0,15.6,0.4,29,13c13.1,12.3,25.9,37.1,23.9,35.4l-7.9,13.1l-42-8.4L227.9,819.5z"/>
		<path class="st1" d="M230.9,872.5c0,0,39-2.8,59,22c21,26,25,53,25,53h-75L230.9,872.5"/>
		<path class="st1" d="M284.9,947.5h-45l-6-48c0,0,19-3,34,10C282.9,922.5,284.9,947.5,284.9,947.5z"/>
	</g>
	<g>
		<path class="st1" d="M728.4,880.9c0,0-1.8-9.5-12-16.3c-11.5-7.6-39,0.9-39,0.9s0,26,4,34c5.4,10.8,16,16,16,16L728.4,880.9z"/>
		<path class="st1" d="M693.9,923.4c0,0-17.6-6.6-28.3-6c-10.8,0.6-23.8,7.6-26.8,9.6s-22.5,20.5-22.5,20.5h70L693.9,923.4z"/>
		<path class="st1" d="M773.4,819.5c0,0-15.6,0.4-29,13c-13.1,12.3-25.9,37.1-23.9,35.4l7.9,13.1l42-8.4L773.4,819.5z"/>
		<path class="st1" d="M770.4,872.5c0,0-39-2.8-59,22c-21,26-25,53-25,53h75L770.4,872.5"/>
		<path class="st1" d="M716.4,947.5h45l6-48c0,0-19-3-34,10S716.4,947.5,716.4,947.5z"/>
	</g>
</g>
<g>
	<path class="st2" d="M520.7,42.3c-6.7-10.6-11.9-15.1-15.4-20.2c-3.5-5-4.8-9.6-4.8-9.6s-1.3,4.6-4.8,9.6s-8.6,9.6-15.4,20.2
		c-9,14.1-12.5,36.5-9.6,52.8c2.5,13.9,19.5,25,19.5,25h20.5c0,0,17.1-11,19.5-25C533.2,78.7,529.7,56.4,520.7,42.3z"/>
	<path class="st2" d="M531.1,87c0.8-15.1-2.9-32.8-10.5-44.7c-1.9-2.9-5.9-7.5-5.9-6c-0.7,1.6-1.8,6.2-5.8,11.2c-2.5,3.2-9,9-9,9
		l1.5,30.9L531.1,87z"/>
	<path class="st2" d="M498,54.5c-7-7-12.3-19.4-12.3-19.4s-2.9,3.4-5.3,7.2c-7.5,11.8-11.3,27.2-10.6,42.2l32.6,2.9l17.8-3.4
		L517,69.6C517,69.6,500.9,57.4,498,54.5z"/>
	<path class="st2" d="M501.5,87.4c0,0-9.6-5.8-15.4-13.4c-1.7-2.3-3.4-4.9-4.9-7.5c-3.1-7.1-5.5-12-6.4-12.2
		c-0.1-0.2-0.1-0.2-0.1-0.2l0.1,0.2c-0.1,0-0.2,0-0.3,0.2c-4.6,13-5.9,28.4-3.8,40.6c2.5,13.9,19.5,25,19.5,25h12.3
		c0,0,0-0.1-0.1-0.3L501.5,87.4z"/>
	<path class="st2" d="M531.2,80.2c-1.5-10.3-2.7-11.5-4.8-14.9c-1.8-3-5.8-5.8-5.8-5.8s-3.2,11.3-7.7,17.3
		c-2.9,3.8-11.5,10.6-11.5,10.6s-1.9,4.8-1.9,11.5c0,6.2,2.9,21,2.9,21.1l0,0h8.3c0,0,17.1-11,19.5-25
		C531.1,90.6,532,85.5,531.2,80.2z"/>
</g>
<g>
	<path class="st3" d="M600.7,741.6c-17.3-28.9-100.1-102-100.1-102s-82.8,73.2-100.1,102s-15.8,64.1-15.8,64.1l30.3,129.9h171.3
		l30.3-129.9C616.5,805.7,618,770.5,600.7,741.6z"/>
	<path class="st3" d="M600.7,741.5c-5.6-9.3-17.8-23.1-32-37.6c0,0-17.5,24.9-24.3,33.4c-8,10-30,30-30,30v168.1h71.8l30.2-123
		C616.5,812.5,618,770.4,600.7,741.5z"/>
	<path class="st3" d="M604.2,858.6l-17.9,76.9H414.9l-30.2-129.9c0,0-1.5-35.2,15.8-64.1c7-11.7,24.8-30.6,43.4-49.1
		c0,0,10.9,26.5,29.6,46.9c18.7,20.5,48,27,68,45c12.7,11.4,40,45,40,45L604.2,858.6z"/>
	<path class="st3" d="M497.9,947c0,0,0.5-63.5-36.5-92.5s-41-15-70-35c-28.2-19.4-44.5-35.5-44.5-35.5s-12.4,22-12,42
		c0.5,27.5,7.5,59.5,28.5,81.5s49,40,49,40L497.9,947z"/>
	<path class="st3" d="M497.4,947c0,0-1.6-43.7,30-78.5c30-33,52-34,81-54c28.2-19.4,45-34,45-34s13.4,30,13,50
		c-0.5,27.5-10,56-31,78s-46,39-46,39L497.4,947z"/>
</g>
<rect x="457.1" y="376" class="st0" width="87" height="37.5"/>
<rect x="466.6" y="347.5" class="st0" width="68" height="28.5"/>
<path class="st0" d="M889.4,982.5c1-18,3-30,3-30s-9,5-17,14c-3.7,4.1-5,8.2-14,18c-8.9,9.8-17,9.7-17,9.7H156.9c0,0-8.1,0.1-17-9.7
	c-9-9.8-10.3-13.9-14-18c-8-9-17-14-17-14s2,12,3,30c0.5,9.6-5.8,12.7-3,31c2.3,14.9,28,34,28,34h727.5c0,0,25.7-19.1,28-34
	C895.2,995.2,888.8,992.1,889.4,982.5z"/>
<path class="st0" d="M824.4,937.5c0.9-15.7,3-30,3-30s-6.2,4.1-13,12c-3.2,3.6-6.3,11.4-14,20c-7.7,8.6-14,8-14,8H214.9
	c0,0-6.3,0.6-14-8c-7.7-8.6-10.8-16.4-14-20c-6.8-7.9-13-12-13-12s2.1,14.3,3,30c0.5,8.4-6.4,14-4,30c2,13.1,16.1,26.5,16.1,26.5
	h623.3c0,0,14.1-13.4,16.1-26.5C830.8,951.5,823.9,945.9,824.4,937.5z"/>
<path class="st0" d="M545.4,309.5c0,0-19-58-24-81c-4-18.6-9-84-9-84h-23.5c0,0-5,65.4-9,84c-5,23-24,81-24,81s9.7,12.5,11,17
	c1.4,5,0,21,0,21h67.5c0,0-1.4-16,0-21C535.7,322,545.4,309.5,545.4,309.5z"/>
<rect x="491.2" y="119.5" class="st4" width="18.8" height="24.5"/>
<path class="st0" d="M981.6,1047.4h-962c0,0,14.4,13.7,16.1,36.1c2,25.8-11.4,53.9,5.2,79.2c14,21.4,28,30.3,28,30.3h863.6
	c0,0,14-8.9,28-30.3c16.6-25.3,3.2-53.4,5.2-79.2C967.2,1061.1,981.6,1047.4,981.6,1047.4z"/>
<line class="st5" x1="429.6" y1="376.5" x2="571.6" y2="376.5"/>
<line class="st5" x1="436.1" y1="347.5" x2="565.1" y2="347.5"/>
<line class="st5" x1="469.6" y1="144.5" x2="531.6" y2="144.5"/>
<line class="st5" x1="469.6" y1="119.5" x2="531.6" y2="119.5"/>
<g>
	<path class="st6" d="M126.9,1149.3h-7.4c-4.6-4.2-9.3-7.1-14-8.8v0.6c0,2.6-1,4.7-2.9,6.5c-2,1.8-4.2,2.6-6.7,2.6
		c-2.6,0-4.9-1-6.8-2.9s-2.9-4.2-2.9-6.8c0-2.6,1-4.9,2.9-6.8c1.9-1.9,4.2-2.8,6.8-2.8h0.8v-12.5c-0.8,0.2-1.5,0.2-2,0.2
		c-2.6,0-4.7-0.9-6.5-2.7c-1.8-1.8-2.6-4-2.6-6.5c0-2.5,0.9-4.6,2.6-6.4c1.8-1.8,3.9-2.6,6.5-2.6c2.7,0,5,0.9,6.8,2.8
		c1.8,1.8,2.7,4.2,2.7,7v22.8c6.3,2.2,11.4,5,15.4,8.5v-40.1h7.4V1149.3z M98.7,1109.6c0-1.1-0.4-2.1-1.2-2.9
		c-0.8-0.8-1.8-1.2-2.9-1.2c-1.1,0-2.1,0.4-2.9,1.2c-0.8,0.8-1.2,1.8-1.2,2.9c0,1.1,0.4,2.1,1.2,2.9c0.8,0.8,1.8,1.2,2.9,1.2
		c1.1,0,2.1-0.4,2.9-1.2C98.3,1111.7,98.7,1110.7,98.7,1109.6z M99.9,1140.5c0-1.1-0.4-2.1-1.2-2.9c-0.8-0.8-1.8-1.2-2.9-1.2
		c-1.1,0-2.1,0.4-2.9,1.2c-0.8,0.8-1.2,1.8-1.2,2.9c0,1.1,0.4,2.1,1.2,2.9c0.8,0.8,1.8,1.2,2.9,1.2c1.1,0,2.1-0.4,2.9-1.2
		C99.5,1142.6,99.9,1141.7,99.9,1140.5z"/>
	<path class="st6" d="M179.5,1149.3h-7.4v-26.6c0-2.2-0.4-3.2-1.3-3.2c-0.6,0-1.6,1-2.8,3l-15.6,26.9h-7v-30.8
		c-0.8,0.2-1.5,0.2-2,0.2c-2.6,0-4.7-0.9-6.5-2.7c-1.8-1.8-2.6-4-2.6-6.5c0-2.5,0.9-4.6,2.6-6.4c1.8-1.8,3.9-2.6,6.5-2.6
		c2.7,0,5,0.9,6.8,2.8c1.8,1.8,2.7,4.2,2.7,7v17.9c0,2.1-0.5,6.3-1.4,12.7c0.8-3.4,2-6.6,3.6-9.5l6.6-11.4c1.4-2.4,2.7-3.8,3.8-4.1
		c-1.6-2-2.4-4.1-2.4-6.2c0-2.6,0.9-4.7,2.6-6.5c1.8-1.8,3.9-2.6,6.5-2.6c2.6,0,4.7,0.9,6.5,2.6c1.8,1.8,2.6,3.9,2.6,6.5
		c0,2.6-1.1,5-3.4,7c1,2,1.6,4.2,1.6,6.5V1149.3z M147.5,1109.6c0-1.1-0.4-2.1-1.2-2.9c-0.8-0.8-1.8-1.2-2.9-1.2
		c-1.1,0-2.1,0.4-2.9,1.2c-0.8,0.8-1.2,1.8-1.2,2.9c0,1.1,0.4,2.1,1.2,2.9c0.8,0.8,1.8,1.2,2.9,1.2c1.1,0,2.1-0.4,2.9-1.2
		C147.1,1111.7,147.5,1110.7,147.5,1109.6z M176.3,1109.6c0-1.1-0.4-2.1-1.2-2.9c-0.8-0.8-1.8-1.2-2.9-1.2c-1.1,0-2.1,0.4-2.9,1.2
		c-0.8,0.8-1.2,1.8-1.2,2.9c0,1.1,0.4,2.1,1.2,2.9c0.8,0.8,1.8,1.2,2.9,1.2c1.1,0,2.1-0.4,2.9-1.2
		C175.9,1111.7,176.3,1110.7,176.3,1109.6z"/>
	<path class="st6" d="M219.8,1149.3h-7.4v-34.9c0-2.2-0.8-4.1-2.3-5.5c-1.5-1.4-3.6-2.1-6.2-2.1c-2.6,0-4.8,0.9-6.5,2.6
		c-1.7,1.8-2.6,4-2.6,6.7h-7.2c0.2-4.8,1.8-8.6,4.7-11.5c2.9-2.8,6.8-4.3,11.6-4.3c4.5,0,8.3,1.1,11.3,3.4c3.1,2.3,4.6,5.7,4.6,10.4
		V1149.3z"/>
	<path class="st6" d="M265.3,1140.5c0,2.8-0.9,5.1-2.8,6.9c-1.8,1.8-4.1,2.7-6.8,2.7c-2.6,0-4.7-0.9-6.5-2.6
		c-1.8-1.8-2.6-3.9-2.6-6.4c0-2.6,0.9-4.7,2.6-6.5c1.8-1.8,3.9-2.6,6.5-2.6c0.9,0,1.6,0,2.2,0.1v-17.6c0-5.1-3.7-7.7-11-7.7
		c-3,0-5.6,0.9-7.7,2.8c-2.1,1.9-3.2,4.4-3.2,7.5h-7.2c0.2-5.3,2-9.4,5.2-12.3c3.2-2.9,7.5-4.4,12.9-4.4c5.3,0,9.5,1,12.7,3.1
		c3.8,2.5,5.8,6.3,5.8,11.4V1140.5z M259.8,1141c0-1.1-0.4-2.1-1.2-2.9c-0.8-0.8-1.8-1.2-2.9-1.2c-1.1,0-2.1,0.4-2.9,1.2
		c-0.8,0.8-1.2,1.8-1.2,2.9c0,1.1,0.4,2.1,1.2,2.9c0.8,0.8,1.8,1.2,2.9,1.2c1.1,0,2.1-0.4,2.9-1.2
		C259.4,1143.1,259.8,1142.1,259.8,1141z"/>
	<path class="st6" d="M265.5,1095.3c-9.9-3.2-19-4.8-27.2-4.8c-3.8,0-7.6,0.2-11.4,0.7c1-10.7,6.8-16.1,17.5-16.1
		c6.2,0,11,1.9,14.6,5.6S264.8,1089.3,265.5,1095.3z M257.9,1088.2c-0.5-2-1.9-3.9-4.3-5.6c-2.4-1.8-5.1-2.6-8.2-2.6
		c-2.9,0-5.4,0.6-7.4,1.7c-2.1,1.2-3.4,2.7-4,4.6c1.4-0.3,3.5-0.5,6.4-0.5C246.3,1085.8,252.1,1086.6,257.9,1088.2z"/>
	<path class="st6" d="M317.9,1149.3h-7.4v-38.8c0-2.5-0.6-3.7-1.8-3.7c-1,0-1.8,0.6-2.2,1.8l-14.3,40.7h-8.4v-30.8
		c-0.8,0.2-1.5,0.2-2,0.2c-2.6,0-4.7-0.9-6.5-2.7c-1.8-1.8-2.6-4-2.6-6.5c0-2.5,0.9-4.6,2.6-6.4c1.8-1.8,3.9-2.6,6.5-2.6
		c2.7,0,5,0.9,6.8,2.8c1.8,1.8,2.7,4.2,2.7,7v17.9c0,2.7-0.5,7-1.4,12.7c0.9-3.5,2-7.4,3.4-11.8l6.7-21.4c1.5-4.9,4.5-7.3,9-7.2
		c6,0.1,9,3.5,9,10.2V1149.3z M285.8,1109.6c0-1.1-0.4-2.1-1.2-2.9c-0.8-0.8-1.8-1.2-2.9-1.2c-1.1,0-2.1,0.4-2.9,1.2
		c-0.8,0.8-1.2,1.8-1.2,2.9c0,1.1,0.4,2.1,1.2,2.9c0.8,0.8,1.8,1.2,2.9,1.2c1.1,0,2.1-0.4,2.9-1.2
		C285.4,1111.7,285.8,1110.7,285.8,1109.6z"/>
	<path class="st6" d="M364.2,1137.2c0,8.7-5.9,13.1-17.8,13.1c-11.8,0-17.6-4.4-17.6-13.1v-5.5c0-3.8,1.6-6.6,4.9-8.2
		c-3.7-2.5-5.5-6.1-5.5-10.9c0-3.5,1-6.4,2.9-8.7c2-2.3,4.7-3.4,8.1-3.4c2.4,0,4.4,0.7,6.1,2.2c1.7,1.5,2.5,3.4,2.5,5.8
		c0,2.2-0.8,4-2.3,5.6c-1.5,1.6-3.5,2.4-6,2.4c-1.3,0-2.4-0.2-3.4-0.6c0.6,3,2.1,4.6,4.3,4.6h8.5v5.9h-8.5c-1.3,0-2.3,0.6-3.1,1.7
		c-0.8,1.1-1.2,2.4-1.2,3.8v5.5c0,4.3,3.4,6.5,10.2,6.5c6.9,0,10.3-2.2,10.3-6.5v-36h7.4V1137.2z M343.4,1108.6c0-1.1-0.4-2-1.1-2.8
		c-0.7-0.7-1.6-1.1-2.8-1.1c-1.1,0-2,0.4-2.8,1.1c-0.7,0.7-1.1,1.6-1.1,2.8c0,1.1,0.4,2,1.1,2.8c0.7,0.7,1.6,1.1,2.8,1.1
		c1.1,0,2-0.4,2.8-1.1C343.1,1110.7,343.4,1109.7,343.4,1108.6z"/>
	<path class="st6" d="M404.5,1149.3H397v-34.9c0-2.2-0.8-4.1-2.3-5.5c-1.5-1.4-3.6-2.1-6.2-2.1c-2.6,0-4.8,0.9-6.5,2.6
		c-1.7,1.8-2.6,4-2.6,6.7h-7.2c0.2-4.8,1.8-8.6,4.7-11.5c2.9-2.8,6.8-4.3,11.6-4.3c4.5,0,8.3,1.1,11.3,3.4c3.1,2.3,4.6,5.7,4.6,10.4
		V1149.3z"/>
	<path class="st6" d="M452.4,1149.3h-7.4v-20.8c0-2.4-1.4-4.2-4.1-5.5c-2.1-1-4.4-1.4-7-1.4c-2.5,0-4.6,0.6-6.4,1.8
		c-2.2,1.4-3.2,3.4-3.2,5.8v3c0.6-0.2,1.4-0.2,2.2-0.2c2.6,0,4.8,0.9,6.6,2.7c1.8,1.8,2.8,3.9,2.8,6.4c0,2.6-1,4.7-2.9,6.5
		c-1.9,1.8-4.1,2.6-6.6,2.6c-2.6,0-4.9-0.9-6.7-2.6c-1.8-1.7-2.8-3.9-2.8-6.5v-11c0-4.7,1.8-8.4,5.3-11c3.1-2.3,7-3.5,11.6-3.5
		c5,0,8.7,1.4,11.2,4.1v-5.4c0-2.5-1.4-4.4-4.3-5.8c-2.2-1-4.8-1.6-7.6-1.6c-3.1,0-5.8,0.7-8,2.2c-2.5,1.6-4,3.8-4.4,6.5h-7.2
		c0.5-4.9,2.6-8.6,6.4-11.3c3.5-2.5,8-3.7,13.6-3.7c5,0,9.2,1.2,12.8,3.5c4.2,2.6,6.2,6.3,6.2,11V1149.3z M430.5,1141
		c0-1.1-0.4-2.1-1.2-2.9c-0.8-0.8-1.8-1.2-2.9-1.2c-1.1,0-2.1,0.4-2.9,1.2c-0.8,0.8-1.2,1.8-1.2,2.9c0,1.1,0.4,2.1,1.2,2.9
		c0.8,0.8,1.8,1.2,2.9,1.2c1.1,0,2.1-0.4,2.9-1.2C430.1,1143.1,430.5,1142.1,430.5,1141z"/>
	<path class="st6" d="M464.5,1072.1c-2.1,13.3-9.3,19.9-21.6,19.9c-4.8,0-8.5-1-11-2.9c-2.6-2-3.8-4.5-3.8-7.5
		c0-2.3,0.8-4.3,2.4-5.9c1.6-1.6,3.6-2.4,5.9-2.4c2.5,0,4.5,0.8,6.1,2.5c1.6,1.6,2.3,3.6,2.3,5.8c0,2.2-0.6,3.8-1.8,4.8
		c8.3-0.3,13.2-5.1,14.5-14.3H464.5z M439.9,1081.6c0-1-0.4-1.9-1.1-2.6c-0.7-0.7-1.6-1.1-2.6-1.1c-1,0-1.9,0.4-2.6,1.1
		c-0.7,0.7-1,1.6-1,2.6c0,1,0.3,1.9,1,2.6c0.7,0.7,1.5,1,2.6,1c1,0,1.9-0.3,2.6-1C439.5,1083.5,439.9,1082.7,439.9,1081.6z"/>
	<path class="st6" d="M498.7,1137.2c0,8.7-5.9,13.1-17.8,13.1c-11.8,0-17.6-4.4-17.6-13.1v-5.5c0-3.8,1.6-6.6,4.9-8.2
		c-3.7-2.5-5.5-6.1-5.5-10.9c0-3.5,1-6.4,2.9-8.7c2-2.3,4.7-3.4,8.1-3.4c2.4,0,4.4,0.7,6.1,2.2c1.7,1.5,2.5,3.4,2.5,5.8
		c0,2.2-0.8,4-2.3,5.6c-1.5,1.6-3.5,2.4-6,2.4c-1.3,0-2.4-0.2-3.4-0.6c0.6,3,2.1,4.6,4.3,4.6h8.5v5.9H475c-1.3,0-2.3,0.6-3.1,1.7
		c-0.8,1.1-1.2,2.4-1.2,3.8v5.5c0,4.3,3.4,6.5,10.2,6.5c6.9,0,10.3-2.2,10.3-6.5v-36h7.4V1137.2z M477.9,1108.6c0-1.1-0.4-2-1.1-2.8
		c-0.7-0.7-1.6-1.1-2.8-1.1c-1.1,0-2,0.4-2.8,1.1c-0.7,0.7-1.1,1.6-1.1,2.8c0,1.1,0.4,2,1.1,2.8c0.7,0.7,1.6,1.1,2.8,1.1
		c1.1,0,2-0.4,2.8-1.1C477.6,1110.7,477.9,1109.7,477.9,1108.6z"/>
	<path class="st6" d="M546,1138.5c0,4.2-1.9,7.2-5.6,9.2c-3,1.7-7,2.5-11.8,2.5s-8.7-0.8-11.6-2.5c-3.6-2-5.4-5.1-5.4-9.2v-12.1
		c0-2.9,0.8-5.3,2.4-7.3c1.6-2,3.9-2.9,6.8-2.9c2.6,0,4.7,0.9,6.5,2.6c1.8,1.7,2.6,3.9,2.6,6.4c0,2.5-0.9,4.6-2.6,6.4
		c-1.8,1.8-3.9,2.6-6.5,2.6c-0.7,0-1.3-0.1-1.8-0.2v3.7c0,4.2,3.2,6.2,9.7,6.2c6.6,0,9.8-2.1,9.8-6.4v-23c0-2.6-1.2-4.6-3.7-6
		c-2.1-1.1-4.6-1.7-7.7-1.7c-7.6,0-11.7,2-12.4,5.9h-7.2c1-8.1,7.4-12.2,19-12.2c5.4,0,9.8,1,13.2,3c4.2,2.6,6.2,6.4,6.2,11.5
		V1138.5z M524.8,1125.2c0-1.1-0.4-2.1-1.2-2.9c-0.8-0.8-1.8-1.2-2.9-1.2c-1.1,0-2.1,0.4-2.9,1.2c-0.8,0.8-1.2,1.8-1.2,2.9
		c0,1.1,0.4,2.1,1.2,2.9c0.8,0.8,1.8,1.2,2.9,1.2c1.1,0,2.1-0.4,2.9-1.2C524.4,1127.3,524.8,1126.3,524.8,1125.2z"/>
	<path class="st6" d="M546,1177.5h-7.2v-9.1h-0.5c-2,0-3.7-0.7-5.1-2.1c-1.4-1.4-2.1-3.1-2.1-5c0-2,0.7-3.7,2.1-5.2
		c1.4-1.4,3.1-2.2,5.2-2.2c2,0,3.8,0.6,5.3,1.9c1.5,1.3,2.3,3,2.3,5.3V1177.5z M541.8,1160.9c0-0.9-0.3-1.6-1-2.3
		c-0.6-0.6-1.4-1-2.3-1c-0.9,0-1.7,0.3-2.3,1c-0.7,0.6-1,1.4-1,2.3c0,0.9,0.3,1.7,1,2.3c0.7,0.7,1.5,1,2.3,1c0.9,0,1.6-0.3,2.3-1
		C541.4,1162.6,541.8,1161.8,541.8,1160.9z"/>
	<path class="st6" d="M599.4,1138.5c0,7.8-5.8,11.8-17.4,11.8c-11.7,0-17.5-3.9-17.5-11.8v-20c-0.8,0.2-1.5,0.2-2,0.2
		c-2.6,0-4.7-0.9-6.5-2.7c-1.8-1.8-2.6-4-2.6-6.5c0-2.5,0.9-4.6,2.6-6.4c1.8-1.8,3.9-2.6,6.5-2.6c2.7,0,5,0.9,6.8,2.8
		c1.8,1.8,2.7,4.2,2.7,7v28.4c0,1.6,1.1,2.9,3.2,3.8s4.4,1.4,6.8,1.4c2.3,0,4.6-0.5,6.7-1.4c2.2-1,3.2-2.2,3.2-3.8v-37.2h7.4V1138.5
		z M566.5,1109.6c0-1.1-0.4-2.1-1.2-2.9c-0.8-0.8-1.8-1.2-2.9-1.2c-1.1,0-2.1,0.4-2.9,1.2c-0.8,0.8-1.2,1.8-1.2,2.9
		c0,1.1,0.4,2.1,1.2,2.9c0.8,0.8,1.8,1.2,2.9,1.2c1.1,0,2.1-0.4,2.9-1.2C566.1,1111.7,566.5,1110.7,566.5,1109.6z"/>
	<path class="st6" d="M647.2,1149.3h-7.4v-20.8c0-2.4-1.4-4.2-4.1-5.5c-2.1-1-4.4-1.4-7-1.4c-2.5,0-4.6,0.6-6.4,1.8
		c-2.2,1.4-3.2,3.4-3.2,5.8v3c0.6-0.2,1.4-0.2,2.2-0.2c2.6,0,4.8,0.9,6.6,2.7c1.8,1.8,2.8,3.9,2.8,6.4c0,2.6-1,4.7-2.9,6.5
		c-1.9,1.8-4.1,2.6-6.6,2.6c-2.6,0-4.9-0.9-6.7-2.6c-1.8-1.7-2.8-3.9-2.8-6.5v-11c0-4.7,1.8-8.4,5.3-11c3.1-2.3,7-3.5,11.6-3.5
		c5,0,8.7,1.4,11.2,4.1v-5.4c0-2.5-1.4-4.4-4.3-5.8c-2.2-1-4.8-1.6-7.6-1.6c-3.1,0-5.8,0.7-8,2.2c-2.5,1.6-4,3.8-4.4,6.5h-7.2
		c0.5-4.9,2.6-8.6,6.4-11.3c3.5-2.5,8-3.7,13.6-3.7c5,0,9.2,1.2,12.8,3.5c4.2,2.6,6.2,6.3,6.2,11V1149.3z M625.4,1141
		c0-1.1-0.4-2.1-1.2-2.9c-0.8-0.8-1.8-1.2-2.9-1.2c-1.1,0-2.1,0.4-2.9,1.2c-0.8,0.8-1.2,1.8-1.2,2.9c0,1.1,0.4,2.1,1.2,2.9
		c0.8,0.8,1.8,1.2,2.9,1.2c1.1,0,2.1-0.4,2.9-1.2C625,1143.1,625.4,1142.1,625.4,1141z"/>
	<path class="st6" d="M685.9,1141.3c0,2.6-0.9,4.7-2.7,6.4c-1.8,1.7-4,2.6-6.5,2.6c-2.6,0-4.7-0.9-6.5-2.6s-2.7-3.9-2.7-6.5
		c0-2.6,0.9-4.7,2.7-6.5c1.8-1.8,4-2.6,6.5-2.6c1,0,1.6,0,1.8,0.1v-10.3c0-1.3-2.7-2.5-8-3.8c-5.3-1.2-10.1-2.2-14.5-2.9
		c0.2-4.4,1.3-7.9,3.5-10.6c2.2-2.7,5.3-4,9.4-4c1.7,0,4,0.4,6.9,1.1c2.9,0.8,5,1.1,6.3,1.1c1.4,0,2.1-0.9,2.3-2.6l5.9,1.6
		c-1.4,4.9-4.1,7.3-7.9,7.3c-1.4,0-3.5-0.4-6.2-1.1c-2.7-0.7-4.7-1.1-6.1-1.1c-3.5,0-5.5,1.4-6,4.1c6.2,1.3,11.3,2.6,15.5,4.1
		c4.2,1.4,6.3,3.9,6.3,7.4V1141.3z M680.7,1141.1c0-1.1-0.4-2.1-1.2-2.9c-0.8-0.8-1.8-1.2-2.9-1.2c-1.1,0-2.1,0.4-2.9,1.2
		c-0.8,0.8-1.2,1.8-1.2,2.9c0,1.1,0.4,2.1,1.2,2.9c0.8,0.8,1.8,1.2,2.9,1.2c1.1,0,2.1-0.4,2.9-1.2
		C680.3,1143.2,680.7,1142.3,680.7,1141.1z"/>
	<path class="st6" d="M727,1149.3h-7.4v-34.9c0-2.2-0.8-4.1-2.3-5.5c-1.5-1.4-3.6-2.1-6.2-2.1c-2.6,0-4.8,0.9-6.5,2.6
		c-1.7,1.8-2.6,4-2.6,6.7h-7.2c0.2-4.8,1.8-8.6,4.7-11.5c2.9-2.8,6.8-4.3,11.6-4.3c4.5,0,8.3,1.1,11.3,3.4c3.1,2.3,4.6,5.7,4.6,10.4
		V1149.3z"/>
	<path class="st6" d="M776.8,1138c0,3.9-1.2,6.9-3.7,9.1c-2.4,2.1-5.7,3.2-9.7,3.2c-4,0-7.2-1.1-9.7-3.2c-2.4-2.1-3.7-5.1-3.7-9.1
		v-7.8c0-2.3,1.1-5.4,3.2-9.3c2.1-3.9,3.2-6.9,3.2-9.2c0-1.8-0.6-3.4-1.9-4.6c-1.3-1.2-2.8-1.8-4.4-1.8c-2.6,0-4.3,0.5-5.2,1.6
		c2.4,0.1,4.3,0.8,5.8,2.3c1.5,1.4,2.2,3.3,2.2,5.5c0,2.4-0.8,4.4-2.5,6.1c-1.7,1.6-3.7,2.5-6,2.5c-2.7,0-4.9-1-6.5-2.9
		c-1.6-2-2.5-4.3-2.5-7.1c0-3.7,1.5-6.7,4.4-9.1c2.9-2.4,6.3-3.6,10.1-3.6c4,0,7.3,1,9.8,2.9c2.5,1.9,3.8,4.7,3.8,8.4
		c0,2.4-1,5.8-3,10.1c-2,4.3-3,7.4-3,9.1v8.8c0,1.4,0.6,2.4,1.9,3.1c1.2,0.7,2.6,1.1,4,1.1c1.5,0,2.9-0.4,4.1-1.1
		c1.2-0.8,1.8-1.8,1.8-3.1v-19.8c0-3-1.2-4.8-3.5-5.5c0.3-1.4,0.4-2.8,0.1-4.2c4.1-1.5,6.1-5.4,6.1-11.5h7.4
		c-0.6,6.2-2.7,10.7-6.4,13.6c2.4,1.9,3.6,4.4,3.6,7.6V1138z M748.3,1115c0-1-0.4-1.9-1.1-2.6s-1.6-1.1-2.6-1.1
		c-1,0-1.9,0.4-2.6,1.1c-0.7,0.7-1.1,1.6-1.1,2.6c0,1,0.4,1.9,1.1,2.6c0.7,0.7,1.6,1.1,2.6,1.1c1,0,1.9-0.4,2.6-1.1
		C747.9,1116.9,748.3,1116,748.3,1115z"/>
	<path class="st6" d="M819,1139.1c0,7.4-5,11.2-15,11.2c-9.9,0-14.9-3.7-14.9-11.2v-15.7h7.4v16.2c0,2.9,2.5,4.3,7.6,4.3
		c5,0,7.4-1.4,7.4-4.3v-15.8c0-1.8-3.1-3.5-9.4-4.9c-6.2-1.4-11.6-2.5-16.2-3.4c0.5-5.1,1.7-8.8,3.7-11.2c2.3-2.6,6-3.8,10.9-3.8
		c1.8,0,4.2,0.4,7.4,1.1c3.2,0.8,5.4,1.1,6.7,1.1c1.4,0,2.1-0.9,2.3-2.6l5.9,1.6c-0.9,2.6-1.9,4.5-3.1,5.7c-1.2,1.2-3,1.7-5.5,1.7
		c-1.4,0-3.6-0.4-6.6-1.2c-3-0.8-5.2-1.2-6.8-1.2c-4.3,0-6.6,1.3-7,4c7.8,1.7,14,3.3,18.4,4.8c4.4,1.5,6.7,4.1,6.7,7.8V1139.1z"/>
	<path class="st6" d="M860.1,1149.3h-7.4v-34.9c0-2.2-0.8-4.1-2.3-5.5c-1.5-1.4-3.6-2.1-6.2-2.1c-2.6,0-4.8,0.9-6.5,2.6
		c-1.7,1.8-2.6,4-2.6,6.7h-7.2c0.2-4.8,1.8-8.6,4.7-11.5c2.9-2.8,6.8-4.3,11.6-4.3c4.5,0,8.3,1.1,11.3,3.4c3.1,2.3,4.6,5.7,4.6,10.4
		V1149.3z"/>
	<path class="st6" d="M912.1,1126.6c0,3.2-0.8,5.4-2.5,6.6c3.1,1.8,4.7,4.4,4.7,8c0,2.6-0.9,4.7-2.6,6.4c-1.8,1.7-3.9,2.6-6.4,2.6
		c-2.3,0-4.3-0.7-6-2.2s-2.7-3.3-3-5.6c-2.6,1.3-4.4,2.2-5.5,2.9c-1.9,1.2-3.4,2.5-4.6,4h-7.6v-30.8c-0.8,0.2-1.5,0.2-2,0.2
		c-2.6,0-4.7-0.9-6.5-2.7c-1.8-1.8-2.6-4-2.6-6.5c0-2.5,0.9-4.6,2.6-6.4c1.8-1.8,3.9-2.6,6.5-2.6c2.7,0,5,0.9,6.8,2.8
		c1.8,1.8,2.7,4.2,2.7,7v30.5c1.3-1,4.2-2.4,8.6-4.2c4-1.7,6.8-3.4,8.3-5c1.1-1.2,1.7-3.1,1.7-5.8v-24.2h7.4V1126.6z M880.6,1109.6
		c0-1.1-0.4-2.1-1.2-2.9c-0.8-0.8-1.8-1.2-2.9-1.2c-1.1,0-2.1,0.4-2.9,1.2c-0.8,0.8-1.2,1.8-1.2,2.9c0,1.1,0.4,2.1,1.2,2.9
		c0.8,0.8,1.8,1.2,2.9,1.2c1.1,0,2.1-0.4,2.9-1.2C880.2,1111.7,880.6,1110.7,880.6,1109.6z M909.2,1141.3c0-1.1-0.4-2.1-1.2-2.9
		c-0.8-0.8-1.8-1.2-2.9-1.2c-1.1,0-2.1,0.4-2.9,1.2c-0.8,0.8-1.2,1.8-1.2,2.9c0,1.1,0.4,2.1,1.2,2.9c0.8,0.8,1.8,1.2,2.9,1.2
		c1.1,0,2.1-0.4,2.9-1.2C908.8,1143.3,909.2,1142.4,909.2,1141.3z"/>
	<path class="st6" d="M912.3,1095.3c-9.9-3.2-19-4.8-27.2-4.8c-3.8,0-7.6,0.2-11.4,0.7c1-10.7,6.8-16.1,17.5-16.1
		c5.7,0,10.2,1.6,13.7,4.7v-8.3h7.2v22.1C912.2,1094.2,912.2,1094.7,912.3,1095.3z M904.6,1088.2c-0.5-2-1.9-3.9-4.3-5.6
		c-2.4-1.8-5.1-2.6-8.2-2.6c-2.9,0-5.4,0.6-7.4,1.7c-2.1,1.2-3.4,2.7-4,4.6c1.4-0.3,3.5-0.5,6.4-0.5
		C893,1085.8,898.9,1086.6,904.6,1088.2z"/>
</g>
<g>
</g>
<g>
</g>
<g>
</g>
<g>
</g>
<g>
</g>
<g>
</g>
<g>
</g>
<g>
</g>
<g>
</g>
<g>
</g>
<g>
</g>
<g>
</g>
<g>
</g>
<g>
</g>
<g>
</g>
</svg>
